<?xml version="1.0" encoding="utf-8"?>
<!-- Generator: Adobe Illustrator 26.2.1, SVG Export Plug-In . SVG Version: 6.00 Build 0)  -->
<svg version="1.1" id="Capa_1" xmlns="http://www.w3.org/2000/svg" xmlns:xlink="http://www.w3.org/1999/xlink" x="0px" y="0px"
	 viewBox="0 0 1125.1 208" style="enable-background:new 0 0 1125.1 208;" xml:space="preserve">
<style type="text/css">
	.st0{fill:#38454F;}
	.st1{fill:#545F68;}
	.st2{fill:#7D868C;}
	.st3{fill:#AEB5BA;}
	.st4{fill:#546A79;}
	.st5{fill:#EAB916;}
	.st6{fill:#61B772;}
	.st7{fill:#7382BE;}
	.st8{fill:#D65A4A;}
	.st9{fill:none;}
	.st10{fill:#FFFFFF;}
	.st11{font-family:'Poppins-ExtraBold';}
	.st12{font-size:143.743px;}
</style>
<g>
	<path class="st0" d="M237.2,141.8c-0.6,2.7-1.2,5.4-1.9,8c-1.6,5.5-4.5,10.2-9.3,13.7c-3.4,2.5-6.2,2.4-9.3-0.3
		c-9.7-8.3-19.4-16.6-29.1-24.9c-5-4.4-10.8-6.6-17.5-6.6c-20.7,0-41.4,0-62.1,0c-6.6,0-12.3,2.2-17.3,6.5
		c-9.4,8.1-18.9,16-28.2,24.2c-5,4.4-8.2,3.3-12.3-0.5c-5-4.6-7.4-10.4-8.5-16.9c-1.5-8.7-0.7-17.4,0.9-26.1
		c3.8-20.4,11.2-39.5,19.9-58.3c1-2.3,2-4.5,3.3-6.7c2.1-3.6,3.2-7.6,4.2-11.6c0.5-2,1.6-3.2,3.7-3.9c7.6-2.6,15.2-5.4,22.8-8.2
		c2.9-1.1,5.6-1.1,8.2,0.6c5.5,3.7,11.4,5.2,17.9,4.5c2-0.2,4,0,5.9,0c0.4,0.7,0,1.4-0.1,2c-0.6,4.3,1.2,7.5,4.8,9.6
		c3.3,2,6.7,1.7,9.9-0.3c3.4-2.2,4.6-5.4,4.2-9.4c-0.1-0.7-0.5-1.4,0.1-2c5.2,0,10.3-0.1,15.5,0c1.7,0,3.1-0.3,4.6-1.1
		c2-1.2,4.1-2.3,6.1-3.5c2.2-1.3,4.6-1.6,7-0.7c8.3,3,16.6,6,25,9c1,0.4,1.6,1.1,1.9,2c3.3,12.8,10.6,24,15.3,36.2
		c5.8,15,10.9,30.1,13.4,45.9c0.3,1.9,0.1,3.9,0.9,5.7c0,1.1,0,2.3,0,3.4c-0.3,0.9-0.3,1.8,0,2.7c0,1.4,0,2.8,0,4.2
		c-0.3,0.4-0.3,0.8,0,1.1C237.2,140.8,237.2,141.3,237.2,141.8z"/>
	<path class="st1" d="M237.2,134.9c-0.6-0.9-0.6-1.8,0-2.7C237.2,133.1,237.2,134,237.2,134.9z"/>
	<path class="st2" d="M237.2,140.3c-0.6-0.4-0.5-0.8,0-1.1C237.2,139.5,237.2,139.9,237.2,140.3z"/>
	<path class="st3" d="M147.5,35.3c2,6.2-1.6,10.9-5.2,12.5c-3.8,1.8-8.1,1.1-11.2-1.7c-3-2.8-4-6.8-2.5-10.8
		C135,35.3,141.2,35.3,147.5,35.3z"/>
	<path class="st4" d="M108.4,87.4c0-1.4,0-2.8,0-4.2c0-2.2,0.9-3.3,3.2-3.4c2.4-0.1,4.7-0.1,7.1,0c2.3,0.1,3.2,1.2,3.2,3.4
		c0,2.9,0,5.9,0,8.8c0,1.2,0.4,1.6,1.5,1.5c3.1-0.1,6.1,0,9.2,0c1.9,0,2.7,0.8,2.7,2.6c0,2.6,0,5.2,0,7.9c0,2.1-0.8,2.9-2.9,2.9
		c-2.9,0-5.9,0.1-8.8,0c-1.3,0-1.8,0.4-1.8,1.7c0.1,2.9,0.1,5.9,0,8.8c0,2.1-0.9,2.9-2.9,2.9c-2.6,0-5.1,0-7.7,0
		c-1.9,0-2.8-0.9-2.8-2.8c0-2.8-0.1-5.6,0-8.4c0.1-1.6-0.3-2.3-2.1-2.2c-2.8,0.2-5.6,0.1-8.4,0c-2.1,0-2.9-0.9-2.9-2.9
		c0-2.6,0-5.2,0-7.9c0-1.9,0.8-2.6,2.7-2.6c3.1,0,6.1,0,9.2,0c1.2,0,1.6-0.4,1.5-1.5C108.4,90.5,108.4,88.9,108.4,87.4z"/>
	<path class="st4" d="M100.8,67.6c0.5,6.8-6.1,13.5-13.4,13.4c-6.9-0.1-13.5-5.8-13.4-13.6c0.1-7.6,5.7-13.1,13.4-13.3
		C94.9,54,101.2,60.4,100.8,67.6z"/>
	<path class="st4" d="M165,114.6c-7,0.5-13.5-6.2-13.4-13.4c0-7,5.7-13.5,13.3-13.4c7.7,0.1,13.3,5.5,13.5,13.4
		C178.6,108.8,172.2,115.1,165,114.6z"/>
	<path class="st5" d="M188.6,47.4c3.7,0,6.7,2.9,6.8,6.6c0.1,3.6-3,6.7-6.6,6.8c-3.7,0.1-6.8-3-6.8-6.8
		C181.9,50.3,184.8,47.5,188.6,47.4z"/>
	<path class="st6" d="M188.6,87.8c-3.7,0-6.6-2.9-6.6-6.7c0-3.9,2.9-6.8,6.8-6.7c3.6,0,6.7,3.2,6.6,6.8
		C195.3,84.8,192.2,87.8,188.6,87.8z"/>
	<path class="st7" d="M175.2,60.9c3.7,0,6.7,2.9,6.7,6.7c0.1,3.6-3.2,6.8-6.9,6.8c-3.6-0.1-6.7-3.2-6.6-6.8
		C168.5,63.8,171.4,60.9,175.2,60.9z"/>
	<path class="st8" d="M208.8,67.6c0,3.7-3,6.7-6.6,6.8c-3.6,0-6.7-3-6.8-6.6c0-3.8,2.9-6.8,6.7-6.8
		C205.8,60.9,208.8,63.9,208.8,67.6z"/>
</g>
<rect x="236.8" y="41.6" class="st9" width="847.4" height="111.4"/>
<text transform="matrix(1 0 0 1 280.3426 148.0153)"><tspan x="0" y="0" class="st10 st11 st12">GAMES </tspan><tspan x="547.1" y="0" class="st11 st12">ME</tspan></text>
</svg>
